<?xml version="1.0" encoding="utf-8"?>
<!-- Generator: Adobe Illustrator 19.1.0, SVG Export Plug-In . SVG Version: 6.00 Build 0)  -->
<svg version="1.1" id="Layer_1" xmlns="http://www.w3.org/2000/svg" xmlns:xlink="http://www.w3.org/1999/xlink" x="0px" y="0px"
	 viewBox="0 0 326 290" style="enable-background:new 0 0 326 290;" xml:space="preserve">
<style type="text/css">
	.st0{display:none;fill:#F0560B;}
	.st1{display:none;fill:#FEFEFE;}
	.st2{display:none;fill:#FFFFFF;}
	.st3{display:none;fill:#F79838;}
	.st4{display:none;fill:#E26E40;}
	.st5{fill:none;}
	.st6{display:none;clip-path:url(#SVGID_2_);}
	.st7{display:none;clip-path:url(#SVGID_2_);fill:#E8A895;stroke:#F0560B;stroke-miterlimit:10;}
	.st8{clip-path:url(#SVGID_2_);fill:#E58267;}
	.st9{clip-path:url(#SVGID_2_);fill:#DD542F;}
	.st10{clip-path:url(#SVGID_2_);fill:#EA8C68;stroke:#F0560B;stroke-miterlimit:10;}
	.st11{clip-path:url(#SVGID_2_);fill:#F0560B;}
	.st12{fill:#FEFEFE;}
	.st13{fill:#F0560B;}
</style>
<path class="st0" d="M82.5,12.3c53.8,0,107.5,0,161.3,0c0.1,0.3,0.4,0.2,0.7,0.3c3.2,0.3,6.3,0.8,9.4,1.7
	c25.1,6.8,42.3,29.2,42.3,55.2c0.1,50.6,0,101.1,0,151.7c0,8-1.4,15.7-4.8,22.9c-10.6,22.3-28.4,34-53.1,34.1
	c-50,0.3-100.1,0.1-150.1,0.1c-11.7,0-22.6-3-32.3-9.5c-13.3-8.9-21.5-21.3-24.6-37c-0.4-1.9-0.3-3.8-1-5.7c0-53.7,0-107.4,0-161.1
	c0.3-2,0.6-4.1,1-6.1C35.3,36,53.8,17.5,76.7,13.2C78.6,12.9,80.6,12.9,82.5,12.3z M163.2,273.1c24.8,0,49.5,0,74.3,0
	c1.9,0,3.9,0,5.8-0.2c11.8-1,22.1-5.4,30.7-13.4c11.3-10.3,17-23.3,17-38.6c0.1-50.4,0-100.8,0-151.2c0-2-0.1-4.1-0.3-6.1
	c-1.3-10.6-5.2-20-12.2-28c-10.1-11.6-22.8-18-38.1-18.1c-50.4-0.2-100.9-0.1-151.3-0.1c-2.9,0-5.8,0.1-8.7,0.5
	c-10.5,1.4-19.7,5.6-27.5,12.7C41.2,41.2,35.5,54.5,35.5,70.2c0,49.7,0,99.4,0,149.1c0,2.9,0.1,5.9,0.5,8.8
	c1.9,13.6,8.2,24.8,18.9,33.4c9.8,8,21.2,11.6,33.8,11.6C113.5,273,138.3,273.1,163.2,273.1z"/>
<path class="st1" d="M30.3,226c0.6,1.8,0.6,3.8,1,5.7c3.2,15.7,11.4,28.1,24.6,37c9.7,6.6,20.6,9.6,32.3,9.5
	c50,0,100.1,0.2,150.1-0.1c24.7-0.1,42.4-11.9,53.1-34.1c3.4-7.2,4.8-14.9,4.8-22.9c0-50.6,0.1-101.1,0-151.7
	c0-26.1-17.3-48.4-42.3-55.2c-3.1-0.8-6.2-1.4-9.4-1.7c-0.2,0-0.5,0.1-0.7-0.3c17.2,0,34.5,0,51.7,0c0.9,0,1.1,0.1,1.1,1.1
	c0,88,0,176.1,0,264.1c0,0.9-0.2,1.1-1.1,1.1c-88,0-176,0-264,0c-1,0-1.2-0.3-1.2-1.2C30.3,260.2,30.3,243.1,30.3,226z"/>
<path class="st1" d="M82.5,12.3c-1.9,0.7-3.9,0.6-5.8,1C53.8,17.5,35.3,36,31.3,58.9c-0.4,2-0.7,4-1,6.1c0-17.2,0-34.4,0-51.6
	c0-0.9,0.2-1.1,1.1-1.1C48.4,12.3,65.4,12.3,82.5,12.3z"/>
<path class="st2" d="M163.2,273.1c-24.8,0-49.7-0.1-74.5,0c-12.6,0-24-3.6-33.8-11.6c-10.6-8.6-17-19.8-18.9-33.4
	c-0.4-2.9-0.5-5.9-0.5-8.8c0-49.7,0-99.4,0-149.1c0-15.8,5.8-29,17.4-39.6c7.8-7.1,17.1-11.3,27.5-12.7c2.9-0.4,5.8-0.5,8.7-0.5
	c50.4,0,100.9-0.1,151.3,0.1c15.3,0.1,28.1,6.5,38.1,18.1c7,8,11,17.4,12.2,28c0.2,2,0.3,4,0.3,6.1c0,50.4,0,100.8,0,151.2
	c0,15.3-5.7,28.3-17,38.6c-8.7,7.9-19,12.4-30.7,13.4c-1.9,0.2-3.9,0.2-5.8,0.2C212.7,273.1,188,273.1,163.2,273.1z M111.8,22.7
	c-7.9,0-15.8,0-23.8,0c-2.3,0-4.5,0.3-6.7,0.7c-11.9,2.1-21.7,7.8-29.5,17C44.8,48.9,41,58.8,40.7,69.8c-0.2,7.9,0,15.8,0,23.8
	c0,0.3,0,0.6,0,0.9c0,34.5,0,69,0,103.5c0.1,8.6-0.3,17.1,0.3,25.7c0.4,5.2,1.7,10.2,3.8,15c3.2,7.1,7.8,13.2,13.8,18.1
	c3.5,2.9,7.3,5.3,11.5,7c0.2,0.1,0.3,0.3,0.5,0.4c5.3,2.2,10.8,3.6,16.4,3.7c9.9,0.2,19.9,0,29.8,0c39,0,78.1,0,117.1,0
	c2.7,0,5.4,0.1,8-0.2c5.1-0.6,10-1.8,14.7-3.9c7.1-3.2,13.1-7.7,18-13.7c6.9-8.4,11-18.2,11-29.1c0.2-38.2,0.1-76.5,0.1-114.7
	c0-11.3,0-22.7,0-34c0-3.7-0.3-7.3-1.1-10.9c-0.8-3.6-1.8-7.1-3.6-10.4c-1.8-4.5-4.5-8.4-7.8-12c-4-4.5-8.7-8.1-14.1-10.9
	c-6.4-3.3-13.2-5.2-20.4-5.3c-13.1-0.2-26.2-0.1-39.3,0c-21,0-42,0-63,0C128.3,22.6,120.1,22.7,111.8,22.7z"/>
<path class="st0" d="M285.8,106.3c0,38.2,0.1,76.5-0.1,114.7c-0.1,10.9-4.1,20.6-11,29.1c-4.9,6-11,10.5-18,13.7
	c-4.7,2.1-9.6,3.3-14.7,3.9c-2.7,0.3-5.4,0.2-8,0.2c-39,0-78.1,0-117.1,0c0.1-0.7,0.6-1,1.1-1.4c13.6-13.6,27.2-27.2,40.8-40.8
	c0.5-0.5,1-1.2,2-1.1c0.4,2.7,0.5,5.3,0.5,8c0,0.8,0.2,1.1,1.1,1.1c11.1,0,22.2,0,33.2,0c0.8,0,1.1-0.1,1-1
	c-0.1-5.9-0.6-11.8-1.5-17.7c-1.1-6.9-2.8-13.6-4.9-20.3c0.7-0.1,1.1-0.6,1.6-1.1c5.4-5.4,10.9-10.9,16.3-16.3
	c0.5-0.5,0.9-1,1.6-1.1c0.2,0.5,0.5,0.9,0.7,1.4c7.3,17.5,11,35.7,11.2,54.7c0,1,0.2,1.4,1.3,1.4c11.3,0,22.5,0,33.8,0
	c1.1,0,1.3-0.3,1.3-1.4c-0.1-4.9-0.3-9.9-0.7-14.8c-1.1-13-3.6-25.7-7.5-38.1c-2.9-9.3-6.6-18.3-10.9-27c0.8-0.1,1.2-0.7,1.7-1.2
	c14.6-14.6,29.1-29.1,43.7-43.7C284.6,107,285,106.3,285.8,106.3z"/>
<path class="st3" d="M199.6,22.7c13.1,0,26.2-0.1,39.3,0c7.2,0.1,14,2,20.4,5.3c5.4,2.8,10,6.4,14.1,10.9c3.2,3.6,6,7.5,7.8,12
	c-0.8-0.1-1.3,0.3-1.8,0.9c-2.6,2.8-5.4,5.3-8.1,8c-18.1,18.2-36.3,36.4-54.5,54.5c-0.7,0.7-1.4,1.3-1.4,2.4
	c-0.4-0.4-0.8-0.8-1.1-1.2c-13.1-15.4-28.4-28.2-45.8-38.5c-4.8-2.8-9.7-5.3-14.6-7.9c0.1-0.2,0.3-0.4,0.4-0.6
	c14.8-14.8,29.7-29.6,44.5-44.4C199.2,23.7,199.6,23.3,199.6,22.7z"/>
<path class="st3" d="M70,263.7c-4.2-1.7-8-4.1-11.5-7c-6-4.9-10.6-11-13.8-18.1c-2.1-4.8-3.5-9.8-3.8-15c-0.6-8.6-0.1-17.1-0.3-25.7
	c0.7,0,1.1-0.4,1.5-0.9c15.3-15.3,30.6-30.6,45.9-45.9c0.5-0.5,1-1,1.1-1.7c0.6,0.3,1.3,0.1,2,0.2c19,3.6,35,12.6,48,26.8
	c2.9,3.2,5.7,6.5,7.8,10.3c-0.7,0-1.1,0.6-1.6,1c-5.9,5.9-11.8,11.8-17.7,17.7c-0.6,0.6-1.1,1.1-1.9,1.3c-0.1-0.4-0.2-0.8-0.2-1.3
	c-1.7-13.7-14-23.3-27.8-21.6c-10.4,1.3-18.8,8.9-21.2,19.2c-2.3,10.1,1.9,20.6,10.6,26.4c3.6,2.4,7.6,3.6,11.9,4.1
	c-0.1,0.8-0.7,1.4-1.3,1.9c-8.9,8.9-17.8,17.8-26.7,26.7C70.7,262.6,70.1,263,70,263.7z"/>
<path class="st4" d="M89.2,149.5c-0.1,0.7-0.6,1.2-1.1,1.7c-15.3,15.3-30.6,30.6-45.9,45.9c-0.4,0.4-0.8,0.9-1.5,0.9
	c0-34.5,0-69,0-103.5c0-0.3,0-0.6,0-0.9c0.8,0,1.2-0.6,1.7-1.1c10.7-10.7,21.4-21.4,32.1-32c0.5-0.5,0.8-1,1.5-1.2c0,0.5,0,1,0,1.6
	c0,8.7,0,17.4,0,26.1c0,0.8,0.1,1.2,1.1,1.2c6.8,0,13.7,0.6,20.4,1.5c8.3,1.2,16.3,3.2,24.3,5.8c-0.1,0.7-0.6,1.1-1.1,1.6
	c-5.8,5.8-11.6,11.6-17.4,17.4c-0.4,0.4-0.9,0.8-1.1,1.4c-1.6-0.3-3.1-0.5-4.7-0.8c-6.8-1.3-13.7-1.9-20.6-2c-0.8,0-0.9,0.2-0.9,1
	c0,11.2,0,22.3,0,33.5c0,0.7,0.2,0.9,0.9,0.9C81,148.4,85.1,149,89.2,149.5z"/>
<path class="st4" d="M215.4,116.8c0-1.1,0.7-1.7,1.4-2.4c18.2-18.2,36.4-36.3,54.5-54.5c2.7-2.7,5.5-5.3,8.1-8c0.5-0.5,1-1,1.8-0.9
	c1.8,3.2,2.8,6.8,3.6,10.4c0.8,3.6,1.1,7.2,1.1,10.9c0,11.3,0,22.7,0,34c-0.9,0-1.3,0.6-1.8,1.2c-14.6,14.6-29.1,29.1-43.7,43.7
	c-0.5,0.5-0.9,1.1-1.7,1.2c-4.2-8-8.7-15.8-13.9-23.2C221.9,124.9,218.6,120.8,215.4,116.8z"/>
<path class="st4" d="M199.6,22.7c0,0.6-0.4,1-0.8,1.4c-14.8,14.8-29.7,29.6-44.5,44.4c-0.2,0.2-0.3,0.4-0.4,0.6
	c-2.9-1.2-5.8-2.5-8.7-3.7C129.9,59,113.9,55,97.5,53c-4.6-0.5-9.3-0.9-13.9-1.1c0-0.7,0.6-1.1,1.1-1.6c8.7-8.7,17.5-17.5,26.2-26.2
	c0.4-0.4,1-0.8,1.1-1.4c8.3,0,16.5,0,24.8,0C157.6,22.6,178.6,22.7,199.6,22.7z"/>
<path class="st4" d="M70,263.7c0.1-0.7,0.7-1.1,1.1-1.5c8.9-8.9,17.8-17.8,26.7-26.7c0.6-0.6,1.1-1.1,1.3-1.9c0.6,0,1.1,0,1.7,0
	c9.5-0.2,16.8-4.4,21.7-12.6c2.6-4.4,3.5-9.2,3.3-14.2c0.8-0.1,1.4-0.7,1.9-1.3c5.9-5.9,11.8-11.8,17.7-17.7c0.5-0.5,0.8-1,1.6-1
	c0.8,1.1,1.5,2.3,2.2,3.4c4.6,7.7,7.7,15.9,9.7,24.6c0.7,3.2,1.3,6.4,1.6,9.6c-0.9-0.1-1.4,0.5-2,1.1
	c-13.6,13.6-27.2,27.2-40.8,40.8c-0.4,0.4-1,0.8-1.1,1.4c-9.9,0-19.9,0.2-29.8,0c-5.7-0.1-11.2-1.6-16.4-3.7
	C70.3,264,70.2,263.8,70,263.7z"/>
<path class="st0" d="M111.8,22.7c-0.1,0.7-0.6,1-1.1,1.4c-8.7,8.7-17.5,17.5-26.2,26.2c-0.4,0.4-1,0.8-1.1,1.6
	c-2.2,0-4.4-0.1-6.6-0.1c-0.7,0-1,0.2-1,0.9c0,2.2,0,4.4,0,6.6c-0.7,0.2-1.1,0.7-1.5,1.2c-10.7,10.7-21.4,21.4-32.1,32
	c-0.5,0.5-0.9,1.1-1.7,1.1c0-7.9-0.2-15.9,0-23.8c0.3-11,4.1-20.9,11.2-29.4c7.7-9.3,17.6-15,29.5-17c2.2-0.4,4.4-0.7,6.7-0.7
	C96,22.6,103.9,22.7,111.8,22.7z"/>
<path class="st4" d="M190.1,194.6c-1.8-5-3.7-9.9-6.1-14.6c-3.6-7.1-7.6-13.8-12.6-20.1c-0.2-0.3-0.4-0.6-0.6-1
	c0.1-0.6,0.5-0.9,0.9-1.3c5.2-5.2,10.4-10.4,15.6-15.6c0.3-0.3,0.6-0.7,1.2-0.8c4.5,5.4,8.6,11.2,12.2,17.3c3.2,5.3,6,10.7,8.5,16.2
	c0.2,0.4,0.3,0.8,0.5,1.2c-0.7,0.1-1.1,0.7-1.6,1.1c-5.4,5.4-10.9,10.9-16.3,16.3C191.2,194,190.8,194.6,190.1,194.6z"/>
<path class="st3" d="M188.4,141.4c-0.5,0.1-0.8,0.5-1.2,0.8c-5.2,5.2-10.4,10.4-15.6,15.6c-0.4,0.4-0.8,0.7-0.9,1.3
	c-3-3.5-5.9-7-9.1-10.2c-8.5-8.5-18-15.7-28.6-21.4c-9.6-5.1-19.6-9-30.2-11.3c-0.2,0-0.4-0.1-0.6-0.2c0.1-0.6,0.7-1,1.1-1.4
	c5.8-5.8,11.6-11.6,17.4-17.4c0.5-0.5,1-0.9,1.1-1.6c8.4,2.7,16.5,6.2,24.2,10.5c9,5.1,17.6,10.8,25.4,17.6
	c6,5.3,11.6,10.9,16.7,17.1C188.1,140.9,188.3,141.2,188.4,141.4z"/>
<rect x="-46.9" y="66.9" transform="matrix(0.7174 -0.6966 0.6966 0.7174 -37.9085 156.5366)" class="st3" width="441.8" height="116.2"/>
<path class="st5" d="M163.2,273.1c24.8,0,49.5,0,74.3,0c1.9,0,3.9,0,5.8-0.2c11.8-1,22.1-5.4,30.7-13.4c11.3-10.3,17-23.3,17-38.6
	c0.1-50.4,0-100.8,0-151.2c0-2-0.1-4.1-0.3-6.1c-1.3-10.6-5.2-20-12.2-28c-10.1-11.6-22.8-18-38.1-18.1
	c-50.4-0.2-100.9-0.1-151.3-0.1c-2.9,0-5.8,0.1-8.7,0.5c-10.5,1.4-19.7,5.6-27.5,12.7C41.2,41.2,35.5,54.5,35.5,70.2
	c0,49.7,0,99.4,0,149.1c0,2.9,0.1,5.9,0.5,8.8c1.9,13.6,8.2,24.8,18.9,33.4c9.8,8,21.2,11.6,33.8,11.6
	C113.5,273,138.3,273.1,163.2,273.1z"/>
<g>
	<defs>
		<path id="SVGID_1_" d="M82.5,12.3c53.8,0,107.5,0,161.3,0c0.1,0.3,0.4,0.2,0.7,0.3c3.2,0.3,6.3,0.8,9.4,1.7
			c25.1,6.8,42.3,29.2,42.3,55.2c0.1,50.6,0,101.1,0,151.7c0,8-1.4,15.7-4.8,22.9c-10.6,22.3-28.4,34-53.1,34.1
			c-50,0.3-100.1,0.1-150.1,0.1c-11.7,0-22.6-3-32.3-9.5c-13.3-8.9-21.5-21.3-24.6-37c-0.4-1.9-0.3-3.8-1-5.7
			c0-53.7,0-107.4,0-161.1c0.3-2,0.6-4.1,1-6.1C35.3,36,53.8,17.5,76.7,13.2C78.6,12.9,80.6,12.9,82.5,12.3z"/>
	</defs>
	<clipPath id="SVGID_2_">
		<use xlink:href="#SVGID_1_"  style="overflow:visible;"/>
	</clipPath>
	<g class="st6">
		
			<image style="display:inline;overflow:visible;" width="664" height="655" xlink:href="62710C7D1C57E7EE.png"  transform="matrix(1 0 0 1 -231 -119)">
		</image>
	</g>
	
		<rect x="-5.7" y="-454.8" transform="matrix(0.7071 0.7071 -0.7071 0.7071 148.625 -73.4711)" class="st7" width="337.3" height="1195"/>
	<polygon class="st8" points="0,290 0,290 121.9,-146 462,228 	"/>
	<polygon class="st9" points="0,290 0,290 196.5,-113 442,173.3 	"/>
	<polygon class="st10" points="0,290 0,290 250.9,-87.8 499,113 	"/>
	<polygon class="st11" points="0,290 0,290 234.7,-17.6 428,98 	"/>
</g>
<path class="st5" d="M163.2,273.1c24.8,0,49.5,0,74.3,0c1.9,0,3.9,0,5.8-0.2c11.8-1,22.1-5.4,30.7-13.4c11.3-10.3,17-23.3,17-38.6
	c0.1-50.4,0-100.8,0-151.2c0-2-0.1-4.1-0.3-6.1c-1.3-10.6-5.2-20-12.2-28c-10.1-11.6-22.8-18-38.1-18.1
	c-50.4-0.2-100.9-0.1-151.3-0.1c-2.9,0-5.8,0.1-8.7,0.5c-10.5,1.4-19.7,5.6-27.5,12.7C41.2,41.2,35.5,54.5,35.5,70.2
	c0,49.7,0,99.4,0,149.1c0,2.9,0.1,5.9,0.5,8.8c1.9,13.6,8.2,24.8,18.9,33.4c9.8,8,21.2,11.6,33.8,11.6
	C113.5,273,138.3,273.1,163.2,273.1z"/>
<g>
	<path class="st12" d="M75.9,59.3c0-2.2,0.1-4.4,0-6.6c0-0.7,0.2-1,1-0.9c2.2,0.1,4.4,0.1,6.6,0.1c4.7,0.3,9.3,0.6,13.9,1.1
		c16.5,2,32.4,6,47.7,12.4c2.9,1.2,5.8,2.5,8.7,3.7c4.9,2.5,9.9,5,14.6,7.9c17.4,10.3,32.6,23.2,45.8,38.5c0.4,0.4,0.8,0.8,1.1,1.2
		c3.2,4.1,6.4,8.1,9.4,12.4c5.2,7.4,9.7,15.2,13.9,23.2c4.3,8.7,8,17.7,10.9,27c3.9,12.4,6.4,25.1,7.5,38.1
		c0.4,4.9,0.6,9.8,0.7,14.8c0,1.1-0.2,1.4-1.3,1.4c-11.3,0-22.5,0-33.8,0c-1.1,0-1.3-0.4-1.3-1.4c-0.2-19-3.9-37.2-11.2-54.7
		c-0.2-0.5-0.4-0.9-0.7-1.4c-0.1-0.4-0.3-0.8-0.5-1.2c-2.5-5.6-5.3-11-8.5-16.2c-3.7-6.1-7.7-11.9-12.2-17.3
		c-0.1-0.2-0.3-0.4-0.4-0.6c-5.1-6.1-10.7-11.8-16.7-17.1c-7.8-6.9-16.4-12.5-25.4-17.6c-7.7-4.4-15.8-7.9-24.2-10.5
		c-7.9-2.6-16-4.6-24.3-5.8c-6.8-1-13.6-1.6-20.4-1.5c-1,0-1.1-0.4-1.1-1.2c0-8.7,0-17.4,0-26.1C76,60.3,76,59.8,75.9,59.3z"/>
	<path class="st12" d="M160.6,224.5c-0.3-3.2-0.9-6.4-1.6-9.6c-1.9-8.7-5.1-16.9-9.7-24.6c-0.7-1.2-1.5-2.3-2.2-3.4
		c-2.2-3.8-4.9-7.1-7.8-10.3c-13-14.3-29-23.2-48-26.8c-0.7-0.1-1.4,0.1-2-0.2c-4.1-0.5-8.2-1.1-12.4-1.1c-0.7,0-0.9-0.2-0.9-0.9
		c0-11.2,0-22.3,0-33.5c0-0.7,0.2-1,0.9-1c6.9,0.1,13.8,0.6,20.6,2c1.6,0.3,3.1,0.6,4.7,0.8c0.2,0.1,0.4,0.2,0.6,0.2
		c10.6,2.4,20.6,6.2,30.2,11.3c10.6,5.7,20.1,12.8,28.6,21.4c3.2,3.3,6.2,6.8,9.1,10.2c0.2,0.3,0.4,0.7,0.6,1
		c4.9,6.2,9,13,12.6,20.1c2.4,4.7,4.3,9.6,6.1,14.6c2.2,6.6,3.9,13.4,4.9,20.3c0.9,5.9,1.4,11.8,1.5,17.7c0,0.9-0.3,1-1,1
		c-11.1,0-22.2,0-33.2,0c-0.9,0-1.1-0.2-1.1-1.1C161.2,229.8,161,227.2,160.6,224.5z"/>
	<path class="st12" d="M160.6,224.5c-0.3-3.2-0.9-6.4-1.6-9.6c-1.9-8.7-5.1-16.9-9.7-24.6c-0.7-1.2-1.5-2.3-2.2-3.4
		c-2.2-3.8-4.9-7.1-7.8-10.3c-13-14.3-29-23.2-48-26.8c-0.7-0.1-1.4,0.1-2-0.2c-4.1-0.5-8.2-1.1-12.4-1.1c-0.7,0-0.9-0.2-0.9-0.9
		c0-11.2,0-22.3,0-33.5c0-0.7,0.2-1,0.9-1c6.9,0.1,13.8,0.6,20.6,2c1.6,0.3,3.1,0.6,4.7,0.8c0.2,0.1,0.4,0.2,0.6,0.2
		c10.6,2.4,20.6,6.2,30.2,11.3c10.6,5.7,20.1,12.8,28.6,21.4c3.2,3.3,6.2,6.8,9.1,10.2c0.2,0.3,0.4,0.7,0.6,1
		c4.9,6.2,9,13,12.6,20.1c2.4,4.7,4.3,9.6,6.1,14.6c2.2,6.6,3.9,13.4,4.9,20.3c0.9,5.9,1.4,11.8,1.5,17.7c0,0.9-0.3,1-1,1
		c-11.1,0-22.2,0-33.2,0c-0.9,0-1.1-0.2-1.1-1.1C161.2,229.8,161,227.2,160.6,224.5z"/>
	<path class="st12" d="M125.9,206.8c0.2,5-0.7,9.8-3.3,14.2c-4.9,8.2-12.2,12.3-21.7,12.6c-0.6,0-1.1,0-1.7,0
		c-4.3-0.5-8.3-1.7-11.9-4.1c-8.7-5.8-13-16.3-10.6-26.4c2.4-10.3,10.8-17.9,21.2-19.2c13.8-1.7,26.1,7.9,27.8,21.6
		C125.7,206,125.8,206.4,125.9,206.8z"/>
</g>
<g>
	<path class="st13" d="M242.4,18.3c0.6,0.2,1.1,0.2,1.8,0.2c2.8,0.3,5.5,0.7,8.2,1.5c22.6,6.2,37.9,26,37.9,49.5
		c0.1,38.7,0,78,0,116c0,11.9,0,23.8,0,35.7c0,7.7-1.4,14.4-4.3,20.3c-4.8,10.1-11.3,17.8-19.1,22.9c-7.9,5.1-17.5,7.8-28.6,7.8
		c-18.1,0.1-37.7,0.1-61.8,0.1c-13.8,0-27.6,0-41.4,0c-13.8,0-27.6,0-41.4,0l-5.5,0c-11,0-20.5-2.8-29-8.5
		c-12-8.1-19.2-19-22.1-33.2c-0.1-0.5-0.2-1.1-0.2-1.7c-0.1-1.1-0.3-2.3-0.6-3.7V65.5c0.1-0.5,0.2-1,0.2-1.5c0.2-1.4,0.4-2.7,0.7-4
		c1.8-10,6.6-19.2,14-26.7c7.4-7.4,16.6-12.3,26.6-14.2c0.5-0.1,1.1-0.2,1.7-0.2c1.1-0.1,2.5-0.3,3.9-0.7H242.4 M243.8,12.3
		c-53.8,0-107.5,0-161.3,0c-1.9,0.7-3.9,0.6-5.8,1C53.8,17.5,35.3,36,31.3,58.9c-0.4,2-0.7,4-1,6.1c0,53.7,0,107.4,0,161.1
		c0.6,1.8,0.6,3.8,1,5.7c3.2,15.7,11.4,28.1,24.6,37c9.7,6.6,20.6,9.5,32.3,9.5c0,0,0,0,0,0c1.8,0,3.7,0,5.5,0
		c27.6,0,55.2,0.1,82.8,0.1c20.6,0,41.2,0,61.9-0.1c24.7-0.1,42.4-11.9,53.1-34.1c3.4-7.2,4.8-14.9,4.8-22.9
		c0-50.6,0.1-101.1,0-151.7c0-26.1-17.3-48.4-42.3-55.2c-3.1-0.8-6.2-1.4-9.4-1.7c0,0-0.1,0-0.1,0c0,0-0.1,0-0.1,0
		C244.1,12.5,243.9,12.5,243.8,12.3L243.8,12.3z"/>
</g>
<line class="st5" x1="76" y1="129.5" x2="76" y2="129.5"/>
<path id="SVGID_x5F_3_x5F_" class="st5" d="M53.5,148.5c58.8-11.5,114.5,17,117.6,79.5"/>
<text><textPath  xlink:href="#SVGID_x5F_3_x5F_" startOffset="32.0689%">
<tspan  class="st13" style="font-family:'PoiretOne-Regular'; font-size:35px;">Testing</tspan></textPath>
</text>
<path id="SVGID_x5F_4_x5F_" class="st5" d="M75,85.9c65-4.4,148.5,59.2,145.4,145.4"/>
<text><textPath  xlink:href="#SVGID_x5F_4_x5F_" startOffset="32.0689%">
</textPath>
</text>
<path id="SVGID_x5F_5_x5F_" class="st5" d="M121.9,92.3c90.1,15.2,124.3,136.5,100,184.3"/>
<text><textPath  xlink:href="#SVGID_x5F_5_x5F_" startOffset="0%">
<tspan  class="st13" style="font-family:'PoiretOne-Regular'; font-size:35px;">Feed Reader</tspan></textPath>
</text>
</svg>
