<?xml version="1.0" encoding="utf-8"?>
<!-- Generator: Adobe Illustrator 19.1.0, SVG Export Plug-In . SVG Version: 6.00 Build 0)  -->
<svg version="1.1" id="Layer_1" xmlns="http://www.w3.org/2000/svg" xmlns:xlink="http://www.w3.org/1999/xlink" x="0px" y="0px"
	 viewBox="-9 4.5 80.2 93.5" style="enable-background:new -9 4.5 80.2 93.5;" xml:space="preserve">
<style type="text/css">
	.st0{fill:#F02511;}
	.st1{fill:#FFFFFF;}
</style>
<g>
	<path class="st0" d="M21.5,74.9c-1-1.3-1.9-2.5-3-3.6c-1.3-1.2-2.5-2.2-3.4-3.8c-1.4-2.6-3.3-4.5-5.6-6.3c-2.2-1.8-4.4-4.4-5-7.2
		c-0.3-1.5-0.9-3.4-0.9-4.9c0-0.6,0-0.6,0.3-1c0.1-0.2,0.4-0.4,0.5-0.6c0.2-0.4,0-0.9,0.1-1.4c0.1-1.5,0.9-2.2,1.4-3.5
		c0.6-1.5,0.3-3.2,0.8-4.7c0.4-1.4,1.3-2.7,2-4c0.9-1.6,1.7-3.2,2.7-4.8c0.9-1.4,1.8-2.8,2.8-4.2c0.9-1.3,2.5-3,2.6-4.7
		c0.1-1.7-2.1-1.6-3.4-1.9c-1.8-0.4-2.9-1.1-4.1,0.6c-1.8,2.6-3.7,5.3-4.8,8.4c-0.3,0.9-1.2,2.6-0.9,3.5c0.2,0.7,1.2,1.1,1.6,1.6
		c0.4,0.6,0.6,1.2,0.7,1.9c0.2,1.2-0.2,2.1-1,3c-0.9,1.1-2.9,0.2-4.2,0c-1.2-0.2-2.3-0.4-2.6-1.7c-0.4-1.8,0.1-3.6,0.6-5.2
		c1-3.7,1.3-7.4,2.1-10.9c0.4-1.5,0.9-2.9,1.7-4.2c0.6-1,1.6-3.5,2.7-4s3.6-0.1,4.8-0.1c1.9,0,3.8,0,5.8,0.2c1.9,0.1,3.8,0,5.7,0.1
		c1.9,0.1,3.4,0.5,5.2,0.9c0.6,0.1,1.9,0.8,2.4,0.7c0.6-0.1,1.1-1.4,1.5-2c0.9-1.4,2-2.8,3.3-3.9c2.7-2.3,6.4-3.3,9.7-1.9
		c3.3,1.3,4.4,4.2,4.4,7.5c0,1.8-1.2,4-2.3,5.3c-1,1.2-2.5,1.3-3.6,2.4c1.5,1.2,4.6,3.2,6.2,1.4c2.1-2.2,3.4-5.8,4.3-8.6
		c0.9-2.9-2.5-3.7-2.1-6.7c0.2-1.2,1.1-2,2.4-1.9c1.1,0.1,3.9,0.7,4.6,1.6c0.7,0.8,0.3,3.4,0.1,4.4c-0.4,1.8-0.9,3.4-1.2,5.2
		c-0.5,3.1-1.1,5.7-2.4,8.6c-0.6,1.2-1.5,2.1-2.2,3.2c-0.3,0.5-0.1,0.8-0.7,1.1c-0.5,0.3-1.5-0.1-2-0.1c-3.2-0.3-7,0.2-10-0.9
		c-1.3-0.5-4.1-2.1-5.5-1.5c-1.1,0.4-1.5,2.7-2,3.6c-0.7,1.3-1.8,1.9-2.7,3.1c-1.1,1.5-1.4,3.6-2,5.3c2-0.2,4.1-0.4,6.1-0.8
		c1.9-0.4,3.9-1,5.8-0.7c2,0.3,2.8,1.6,4,3.1c1.3,1.7,2.9,3.1,4.4,4.6c2.8,2.8,5.3,6,8.4,8.5c1.5,1.1,3,1.9,4.8,2.5
		c2.1,0.7,2.9,0.4,5-0.3c1.8-0.6,2.7-1.5,4.1-2.7c0.3-0.2,1.2-1,1.6-0.5c0.3,0.4-0.5,3-0.7,3.5c-0.5,1.7-1.4,3.4-2.7,4.5
		c-1.5,1.3-3.6,1.9-5.2,3.1c-1.8,1.2-2.7,1.1-4.3-0.5c-1.1-1.1-1.6-2.7-2.9-3.6c-1.5-1.1-3.3-1.7-4.8-2.7c-1.6-1.1-3.1-2.3-4.9-3.2
		c-1.6-0.7-2.9-1.6-4.1-2.9c-0.6-0.6-1.3-1.3-1.8-2c-0.6-0.7-1-1.9-1.9-2.2c-1.1-0.4-3.8,1.3-4.7,1.9c-1.6,0.9-3.2,2.2-4.8,3.2
		c-0.6,0.5-1.8,1.3-2.1,2c-0.4,0.8,0.1,1.6,0.3,2.3c0.7,2.1,1.4,4.1,1.9,6.2c1,4.1,1.5,8.4,2.6,12.5c0.4,1.6,0.7,3.5,0.1,5.2
		c-0.8,2.1-3.1,2.6-5,3.2c-4.1,1.3-8.2,2.5-12.5,3.1c-3.6,0.5-7.8,1.2-11,3c-1.7,1-3.1,2.4-4.7,3.5s-2.8,2.3-3.8,4
		c-0.3,0.5-1,1.7-1.8,1.3c-0.5-0.2-0.6-1.8-0.6-2.2c-0.1-2.2,1-4.7,2.1-6.5c0.5-0.9,1-1.7,1.1-2.7c0.1-0.8-0.2-1.8,0.2-2.5
		c0.9-1.7,3.3-0.7,4.8-0.6C2.2,83.1,4,82.1,6,81c1.5-0.9,3.3-1.3,4.7-2.5c1.6-1.4,3.2-2.5,5.4-3.1C16.8,75,20.7,75.8,21.5,74.9
		C20.7,73.9,21.4,75,21.5,74.9z"/>
</g>
<g>
	<path class="st1" d="M220.1,4.8c48.6,0,97.3,0,145.9,0c5.6,0,11.2,0,16.8,0c1.7,0,3.4,0,5,0c1.8,0,2.7-0.5,3.4,0.8
		c1.1,2.1,0,7.6,0,10c0,11.9,0,23.9,0,35.8c0,24.2,0,48.3,0,72.5c0,24.2,0,48.3,0,72.5c0,1.5,0.8,7.5,0,8.3c-0.7,0.7-7.3,0-8.4,0
		c-6.1,0-12.3,0-18.4,0c-12.3,0-24.6,0-36.9,0c-24,0-48.1,0-72.1,0c-6.2,0-12.3,0-18.5,0c-2.8,0-5.6,0-8.4,0c-1.4,0-2.8,0-4.2,0
		c-0.8,0-1.7,0-2.5,0c-1.7,0.6-2.2,0-1.7-1.7c-0.7-2.1,0-6.1,0-8.3c0-2.8,0-5.6,0-8.3c0-6.4,0-12.8,0-19.2
		C220.1,113.2,220.1,59,220.1,4.8C277.1,4.8,220.1,71.5,220.1,4.8z M285.1,155.6c-1.6,1.8-8.4,0.3-10.7,0.6
		c-4.1,0.6-8.4,2.7-11.6,5.3c-2.8,2.4-4.8,3.6-8.1,5.1c-3.9,1.7-7.1,4.6-11.2,5.8c-4,1.2-7.6-0.2-11.6-0.2c-3.9,0-4.6,1.8-4.8,5.4
		c-0.4,8.2-8,14.6-6.6,23.3c0.7,4.3,3,3.7,5,0.4c2.2-3.7,4.7-6.2,8.2-8.7c3.2-2.3,6.1-5.2,9.5-7.2c3.7-2.1,7.3-3.2,11.4-4
		c8.8-1.7,18-3.2,26.6-5.6c4.4-1.2,8.7-2.5,13-3.8c3.7-1.2,8.8-2.2,10.6-6.2c1.5-3.2,1-7.6,0.2-10.9c-1.2-4.6-2.2-9.1-3.1-13.7
		c-1.7-9-3.6-17.6-6.4-26.3c-0.6-1.9-1.7-3.8-0.9-5.7c0.6-1.5,2.7-3,4-4c3.2-2.4,6.8-4.9,10.2-7c2.1-1.3,8.1-5.1,10.6-4.3
		c1.6,0.5,2.2,2.4,3.2,3.7c1.3,1.7,2.9,3.3,4.4,4.9c2.6,2.8,5.1,4.8,8.6,6.3c4.1,1.8,7.5,4.5,11.2,7c3.1,2.2,6.7,3.5,9.8,5.6
		c2.9,1.9,4,5.2,6.4,7.6c3,3.1,5.6,4.3,9.2,1.7c3.5-2.5,7.7-3.9,11.2-6.5c3.2-2.4,5.2-6.3,6.3-10.1c0.5-1.8,1.2-4.1,1.2-5.9
		c0-1.9,0.6-1.4-0.9-1.7c-1.1-0.2-1.6,0.6-2.4,1.2c-1.5,1.2-2.6,2.8-4.4,3.9c-1.8,1.1-3.7,1.5-5.6,2.2c-2,0.7-3.5,1.7-5.7,1.5
		c-2.1-0.3-4.4-1.3-6.4-2.1c-8.9-3.6-14.9-11.6-21.4-18.4c-3.4-3.6-7-6.9-10.4-10.5c-2.8-3-5.1-7.6-8.9-9.5c-4.1-2-9.1-0.8-13.3,0.1
		c-5,1.1-10,1.7-15.1,2.2c1.2-3.1,1.8-6.5,3.3-9.5c1.3-2.8,3.9-4,5.7-6.4c1.7-2.3,2.4-5.1,3.8-7.6c1.9-3.5,4.7-2.2,7.9-1.1
		c3.3,1.1,6.5,2.6,9.9,3c3.9,0.4,7.8,0.3,11.7,0.6c2.8,0.2,6.6,1.3,9.2,0.8c1.8-0.3,3.1-3.3,4.2-4.9c3.4-4.7,6.2-11.4,6.9-17.1
		c0.4-3.4,1-6.8,1.6-10.2c0.7-3.8,2.2-7.3,2.2-11.2c0-3.6,0-4.9-3.5-6.1c-2.9-1-7.1-3.2-10-1.4c-2.3,1.4-2.4,4.5-1.8,6.9
		c0.7,3,3.4,4,4.5,6.6c1.4,3.1-1.2,7.7-2.4,10.6c-1.5,3.5-3.4,7.1-5.5,10.3c-1.4,2.2-2.9,4.1-5.7,3.5c-2.9-0.6-6.8-2.8-9.1-4.6
		c2-2.1,4.2-2.2,6.4-4c2.5-2,5.2-6.8,6-9.8c1.7-5.9-0.6-13-5.3-16.8C324.3-1,310.6,9.5,304,20c-0.8,1.2-1.4,3-2.5,3.2
		c-1,0.1-3.4-1-4.5-1.3c-3.8-0.9-7.1-2-11.1-2.2c-8.2-0.3-16.4-0.8-24.6-0.7c-3.1,0-7.6-0.7-10.6,0.2c-2.6,0.8-4.5,5.8-5.9,8.1
		c-4,6.6-4.9,14.2-6.3,21.7c-0.6,3.4-1.3,6.8-2.3,10.1c-1.2,3.7-2.4,7.4-1.6,11.3c0.6,2.9,2.1,3.5,4.9,4.1c2.4,0.5,7.6,2.5,9.5,0.7
		c0.2-0.2,1.8-2.8,1.9-3c0.6-1.1,0.5-2,0.4-3.2c-0.1-1.2-0.4-2.6-1-3.7c-0.9-1.5-2.9-2.3-3.7-4c-1-2.2,0.7-5.2,1.4-7.4
		c1.2-3.4,2.6-6.5,4.6-9.6c1.9-3,3.9-6,6-9c2.5-3.6,4.8-2.2,8.7-1.3c2.4,0.6,7,0.5,7.5,3.4c0.5,3.1-3.7,7.8-5.2,10.1
		c-4.3,6.3-8.3,12.5-11.8,19.3c-1.4,2.8-3.3,5.5-4.3,8.5c-1.1,3.3-0.7,6.9-1.7,10.2c-0.5,1.5-1.6,2.6-2.2,4.1
		c-0.7,1.7-0.8,3.4-0.9,5.2c-0.1,0.8,0.2,1.3-0.2,2.2c-0.2,0.5-1.2,0.7-1.4,1.1c-0.6,1.4,0,2.8,0.3,4.3c0.8,3.9,1,8.1,2.6,11.8
		c1.4,3.2,3.8,6,6.1,8.5c4.5,5.1,10.8,8.4,14.2,14.4c2.1,3.8,3.8,6.3,7,9.1C280.1,149.2,282.5,152.3,285.1,155.6
		C285,155.8,283.5,153.5,285.1,155.6z"/>
	<path d="M285.1,155.6c-2.1-2.7-4-5.4-6.5-7.8c-2.8-2.7-5.4-4.7-7.3-8.1c-3-5.6-7-9.6-12-13.6c-4.7-3.8-9.5-9.4-10.7-15.5
		c-0.7-3.3-1.8-7.2-2-10.5c0-1.2,0.1-1.3,0.6-2.2c0.2-0.4,0.9-0.8,1.1-1.3c0.4-0.9,0-2,0.1-2.9c0.2-3.2,1.9-4.8,3-7.5
		c1.2-3.1,0.7-6.9,1.6-10.2c0.9-3.1,2.8-5.7,4.2-8.5c1.8-3.5,3.6-6.9,5.7-10.2c1.9-3,3.9-6,6-9c1.9-2.8,5.3-6.5,5.5-10.1
		c0.2-3.6-4.5-3.3-7.3-4c-3.9-1-6.1-2.4-8.7,1.3c-3.9,5.6-8,11.4-10.3,17.9c-0.7,1.9-2.6,5.6-2,7.6c0.5,1.5,2.5,2.4,3.4,3.5
		c1,1.2,1.4,2.6,1.6,4.1c0.4,2.5-0.5,4.5-2.1,6.4c-1.9,2.3-6.3,0.4-9-0.1c-2.7-0.5-4.9-0.8-5.6-3.7c-0.9-3.8,0.2-7.6,1.3-11.2
		c2.4-7.4,3.2-15.3,5-22.9c0.8-3.2,1.9-6.1,3.6-9c1.3-2.2,3.5-7.5,5.8-8.6c2.4-1.2,7.6-0.2,10.3-0.3c4.1-0.1,8.2,0,12.3,0.3
		c4.1,0.3,8.2,0.3,12.3,0.4c4,0.1,7.3,1,11.2,2c1.2,0.3,4.1,1.7,5.2,1.4c1.2-0.3,2.4-2.9,3.2-4.3c2-3.1,4.3-6.1,7.1-8.5
		c5.7-4.8,13.6-7,20.7-4.1c6.9,2.9,9.5,9.1,9.3,16.2c-0.1,3.8-2.5,8.5-5,11.4c-2.1,2.5-5.4,2.8-7.7,5.2c3.2,2.5,9.9,6.8,13.4,3.1
		c4.4-4.6,7.4-12.4,9.2-18.4c1.9-6.1-5.4-8-4.6-14.4c0.4-2.7,2.4-4.3,5.1-4.1c2.3,0.2,8.3,1.6,9.8,3.4c1.6,1.8,0.7,7.3,0.2,9.3
		c-0.9,3.8-1.9,7.4-2.6,11.2c-1.1,6.6-2.3,12.2-5.2,18.3c-1.2,2.6-3.2,4.5-4.6,6.9c-0.6,1.1-0.2,1.7-1.4,2.3c-1,0.5-3.2-0.2-4.3-0.3
		c-6.9-0.7-14.9,0.3-21.5-2c-2.8-1-8.8-4.4-11.8-3.2c-2.3,1-3.3,5.8-4.4,7.8c-1.5,2.8-4,4.1-5.8,6.6c-2.4,3.1-3,7.8-4.4,11.4
		c4.4-0.4,8.7-0.8,13-1.8c4-0.9,8.4-2.1,12.5-1.5c4.3,0.7,6,3.5,8.5,6.6c2.9,3.6,6.3,6.7,9.5,9.9c6.1,5.9,11.3,12.9,18,18.2
		c3.1,2.4,6.5,4.1,10.2,5.4c4.5,1.6,6.3,0.8,10.7-0.6c3.9-1.3,5.7-3.3,8.8-5.7c0.6-0.5,2.6-2.1,3.5-1c0.7,0.8-1.1,6.4-1.4,7.4
		c-1,3.5-3,7.4-5.9,9.7c-3.3,2.7-7.6,4.1-11.2,6.6c-3.8,2.6-5.8,2.3-9.3-1c-2.4-2.3-3.5-5.8-6.3-7.7c-3.2-2.3-7-3.6-10.3-5.9
		c-3.5-2.4-6.7-5-10.6-6.8c-3.5-1.6-6.1-3.4-8.8-6.2c-1.3-1.4-2.7-2.8-4-4.2c-1.2-1.4-2.2-4.2-4.1-4.8c-2.3-0.8-8.1,2.9-10,4
		c-3.5,2-6.9,4.6-10.2,6.9c-1.4,1-3.8,2.7-4.6,4.4c-0.8,1.7,0.1,3.4,0.6,5c1.4,4.4,3,8.8,4,13.4c2.1,8.9,3.1,17.9,5.5,26.7
		c0.9,3.5,1.5,7.6,0.2,11.1c-1.6,4.4-6.7,5.5-10.8,6.8c-8.8,2.7-17.6,5.4-26.8,6.7c-7.8,1-16.8,2.6-23.7,6.4
		c-3.7,2-6.7,5.1-10.1,7.5c-3.4,2.5-6,5-8.2,8.7c-0.6,1-2,3.7-3.8,2.9c-1.1-0.5-1.3-3.9-1.3-4.8c-0.2-4.7,2.1-10,4.4-14
		c1.2-2,2.1-3.6,2.3-5.9c0.1-1.7-0.4-3.8,0.4-5.3c1.9-3.5,7.2-1.5,10.2-1.2c5,0.4,8.8-1.6,13-4.1c3.3-2,7.1-2.9,10-5.4
		c3.5-3,6.9-5.4,11.5-6.7C275.1,155.9,283.4,157.6,285.1,155.6C283.5,153.5,285,155.8,285.1,155.6z"/>
</g>
</svg>
