<?xml version="1.0" encoding="utf-8"?>
<!-- Generator: Adobe Illustrator 19.1.0, SVG Export Plug-In . SVG Version: 6.00 Build 0)  -->
<svg version="1.1" id="Layer_1" xmlns="http://www.w3.org/2000/svg" xmlns:xlink="http://www.w3.org/1999/xlink" x="0px" y="0px"
	 viewBox="-834.4 605.3 26 33" style="enable-background:new -834.4 605.3 26 33;" xml:space="preserve">
<style type="text/css">
	.st0{fill:#EE5A23;}
	.st1{fill:#FFFFFF;}
	.st2{display:none;}
	.st3{display:inline;fill:#FFFFFF;}
	.st4{display:inline;}
</style>
<path class="st0" d="M-821.4,636.9c-1.9-1.9-3.8-3.8-5.7-5.7c-1.5-1.5-5.1-6.2-6.2-8.4c3.4-3.4,8.4-3.1,11.9-6.6l11.9,6.6
	c-0.8,2.7-5.1,7.3-6.9,9.1C-818.1,633.5-819.7,635.2-821.4,636.9z"/>
<circle class="st0" cx="-821.4" cy="618.2" r="12.7"/>
<circle class="st1" cx="-821.4" cy="618.2" r="10.9"/>
<g>
	<path class="st0" d="M-822.5,622.4c-0.2-0.2-0.4-0.5-0.6-0.7c-0.2-0.2-0.5-0.4-0.6-0.7c-0.3-0.5-0.6-0.8-1.1-1.2
		c-0.4-0.3-0.8-0.8-0.9-1.4c-0.1-0.3-0.2-0.6-0.2-0.9c0-0.1,0-0.1,0.1-0.2c0,0,0.1-0.1,0.1-0.1c0-0.1,0-0.2,0-0.3
		c0-0.3,0.2-0.4,0.3-0.7c0.1-0.3,0.1-0.6,0.2-0.9c0.1-0.3,0.2-0.5,0.4-0.8c0.2-0.3,0.3-0.6,0.5-0.9c0.2-0.3,0.3-0.5,0.5-0.8
		c0.2-0.2,0.5-0.6,0.5-0.9c0-0.3-0.4-0.3-0.6-0.4c-0.3-0.1-0.5-0.2-0.8,0.1c-0.3,0.5-0.7,1-0.9,1.6c-0.1,0.2-0.2,0.5-0.2,0.7
		c0,0.1,0.2,0.2,0.3,0.3c0.1,0.1,0.1,0.2,0.1,0.4c0,0.2,0,0.4-0.2,0.6c-0.2,0.2-0.5,0-0.8,0c-0.2,0-0.4-0.1-0.5-0.3
		c-0.1-0.3,0-0.7,0.1-1c0.2-0.7,0.2-1.4,0.4-2.1c0.1-0.3,0.2-0.5,0.3-0.8c0.1-0.2,0.3-0.7,0.5-0.8s0.7,0,0.9,0c0.4,0,0.7,0,1.1,0
		c0.4,0,0.7,0,1.1,0c0.4,0,0.6,0.1,1,0.2c0.1,0,0.4,0.2,0.5,0.1c0.1,0,0.2-0.3,0.3-0.4c0.2-0.3,0.4-0.5,0.6-0.7
		c0.5-0.4,1.2-0.6,1.8-0.4c0.6,0.2,0.8,0.8,0.8,1.4c0,0.3-0.2,0.8-0.4,1c-0.2,0.2-0.5,0.2-0.7,0.5c0.3,0.2,0.9,0.6,1.2,0.3
		c0.4-0.4,0.6-1.1,0.8-1.6c0.2-0.5-0.5-0.7-0.4-1.3c0-0.2,0.2-0.4,0.5-0.4c0.2,0,0.7,0.1,0.9,0.3c0.1,0.2,0.1,0.6,0,0.8
		c-0.1,0.3-0.2,0.6-0.2,1c-0.1,0.6-0.2,1.1-0.5,1.6c-0.1,0.2-0.3,0.4-0.4,0.6c-0.1,0.1,0,0.2-0.1,0.2c-0.1,0.1-0.3,0-0.4,0
		c-0.6-0.1-1.3,0-1.9-0.2c-0.2-0.1-0.8-0.4-1-0.3c-0.2,0.1-0.3,0.5-0.4,0.7c-0.1,0.2-0.3,0.4-0.5,0.6c-0.2,0.3-0.3,0.7-0.4,1
		c0.4,0,0.8-0.1,1.2-0.2c0.4-0.1,0.7-0.2,1.1-0.1c0.4,0.1,0.5,0.3,0.8,0.6c0.2,0.3,0.5,0.6,0.8,0.9c0.5,0.5,1,1.1,1.6,1.6
		c0.3,0.2,0.6,0.4,0.9,0.5c0.4,0.1,0.5,0.1,0.9-0.1c0.3-0.1,0.5-0.3,0.8-0.5c0.1,0,0.2-0.2,0.3-0.1c0.1,0.1-0.1,0.6-0.1,0.7
		c-0.1,0.3-0.3,0.6-0.5,0.8c-0.3,0.2-0.7,0.4-1,0.6c-0.3,0.2-0.5,0.2-0.8-0.1c-0.2-0.2-0.3-0.5-0.5-0.7c-0.3-0.2-0.6-0.3-0.9-0.5
		c-0.3-0.2-0.6-0.4-0.9-0.6c-0.3-0.1-0.5-0.3-0.8-0.5c-0.1-0.1-0.2-0.2-0.3-0.4c-0.1-0.1-0.2-0.4-0.4-0.4c-0.2-0.1-0.7,0.2-0.9,0.4
		c-0.3,0.2-0.6,0.4-0.9,0.6c-0.1,0.1-0.3,0.2-0.4,0.4c-0.1,0.2,0,0.3,0.1,0.4c0.1,0.4,0.3,0.8,0.4,1.2c0.2,0.8,0.3,1.6,0.5,2.4
		c0.1,0.3,0.1,0.7,0,1c-0.2,0.4-0.6,0.5-0.9,0.6c-0.8,0.2-1.5,0.5-2.4,0.6c-0.7,0.1-1.5,0.2-2.1,0.6c-0.3,0.2-0.6,0.5-0.9,0.7
		c-0.3,0.2-0.5,0.4-0.7,0.8c-0.1,0.1-0.2,0.3-0.3,0.2c-0.1,0-0.1-0.3-0.1-0.4c0-0.4,0.2-0.9,0.4-1.2c0.1-0.2,0.2-0.3,0.2-0.5
		c0-0.2,0-0.3,0-0.5c0.2-0.3,0.6-0.1,0.9-0.1c0.4,0,0.8-0.2,1.2-0.4c0.3-0.2,0.6-0.2,0.9-0.5c0.3-0.3,0.6-0.5,1-0.6
		C-823.4,622.4-822.6,622.6-822.5,622.4C-822.6,622.2-822.5,622.4-822.5,622.4z"/>
</g>
<g class="st2">
	<path class="st3" d="M-638.9,558.3c48.6,0,97.3,0,145.9,0c5.6,0,11.2,0,16.8,0c1.7,0,3.4,0,5,0c1.8,0,2.7-0.5,3.4,0.8
		c1.1,2.1,0,7.6,0,10c0,11.9,0,23.9,0,35.8c0,24.2,0,48.3,0,72.5s0,48.3,0,72.5c0,1.5,0.8,7.5,0,8.3c-0.7,0.7-7.3,0-8.4,0
		c-6.1,0-12.3,0-18.4,0c-12.3,0-24.6,0-36.9,0c-24,0-48.1,0-72.1,0c-6.2,0-12.3,0-18.5,0c-2.8,0-5.6,0-8.4,0c-1.4,0-2.8,0-4.2,0
		c-0.8,0-1.7,0-2.5,0c-1.7,0.6-2.2,0-1.7-1.7c-0.7-2.1,0-6.1,0-8.3c0-2.8,0-5.6,0-8.3c0-6.4,0-12.8,0-19.2
		C-638.9,666.7-638.9,612.5-638.9,558.3C-581.9,558.3-638.9,625-638.9,558.3z M-573.9,709.1c-1.6,1.8-8.4,0.3-10.7,0.6
		c-4.1,0.6-8.4,2.7-11.6,5.3c-2.8,2.4-4.8,3.6-8.1,5.1c-3.9,1.7-7.1,4.6-11.2,5.8c-4,1.2-7.6-0.2-11.6-0.2c-3.9,0-4.6,1.8-4.8,5.4
		c-0.4,8.2-8,14.6-6.6,23.3c0.7,4.3,3,3.7,5,0.4c2.2-3.7,4.7-6.2,8.2-8.7c3.2-2.3,6.1-5.2,9.5-7.2c3.7-2.1,7.3-3.2,11.4-4
		c8.8-1.7,18-3.2,26.6-5.6c4.4-1.2,8.7-2.5,13-3.8c3.7-1.2,8.8-2.2,10.6-6.2c1.5-3.2,1-7.6,0.2-10.9c-1.2-4.6-2.2-9.1-3.1-13.7
		c-1.7-9-3.6-17.6-6.4-26.3c-0.6-1.9-1.7-3.8-0.9-5.7c0.6-1.5,2.7-3,4-4c3.2-2.4,6.8-4.9,10.2-7c2.1-1.3,8.1-5.1,10.6-4.3
		c1.6,0.5,2.2,2.4,3.2,3.7c1.3,1.7,2.9,3.3,4.4,4.9c2.6,2.8,5.1,4.8,8.6,6.3c4.1,1.8,7.5,4.5,11.2,7c3.1,2.2,6.7,3.5,9.8,5.6
		c2.9,1.9,4,5.2,6.4,7.6c3,3.1,5.6,4.3,9.2,1.7c3.5-2.5,7.7-3.9,11.2-6.5c3.2-2.4,5.2-6.3,6.3-10.1c0.5-1.8,1.2-4.1,1.2-5.9
		c0-1.9,0.6-1.4-0.9-1.7c-1.1-0.2-1.6,0.6-2.4,1.2c-1.5,1.2-2.6,2.8-4.4,3.9c-1.8,1.1-3.7,1.5-5.6,2.2c-2,0.7-3.5,1.7-5.7,1.5
		c-2.1-0.3-4.4-1.3-6.4-2.1c-8.9-3.6-14.9-11.6-21.4-18.4c-3.4-3.6-7-6.9-10.4-10.5c-2.8-3-5.1-7.6-8.9-9.5c-4.1-2-9.1-0.8-13.3,0.1
		c-5,1.1-10,1.7-15.1,2.2c1.2-3.1,1.8-6.5,3.3-9.5c1.3-2.8,3.9-4,5.7-6.4c1.7-2.3,2.4-5.1,3.8-7.6c1.9-3.5,4.7-2.2,7.9-1.1
		c3.3,1.1,6.5,2.6,9.9,3c3.9,0.4,7.8,0.3,11.7,0.6c2.8,0.2,6.6,1.3,9.2,0.8c1.8-0.3,3.1-3.3,4.2-4.9c3.4-4.7,6.2-11.4,6.9-17.1
		c0.4-3.4,1-6.8,1.6-10.2c0.7-3.8,2.2-7.3,2.2-11.2c0-3.6,0-4.9-3.5-6.1c-2.9-1-7.1-3.2-10-1.4c-2.3,1.4-2.4,4.5-1.8,6.9
		c0.7,3,3.4,4,4.5,6.6c1.4,3.1-1.2,7.7-2.4,10.6c-1.5,3.5-3.4,7.1-5.5,10.3c-1.4,2.2-2.9,4.1-5.7,3.5c-2.9-0.6-6.8-2.8-9.1-4.6
		c2-2.1,4.2-2.2,6.4-4c2.5-2,5.2-6.8,6-9.8c1.7-5.9-0.6-13-5.3-16.8c-12.1-9.7-25.8,0.8-32.4,11.3c-0.8,1.2-1.4,3-2.5,3.2
		c-1,0.1-3.4-1-4.5-1.3c-3.8-0.9-7.1-2-11.1-2.2c-8.2-0.3-16.4-0.8-24.6-0.7c-3.1,0-7.6-0.7-10.6,0.2c-2.6,0.8-4.5,5.8-5.9,8.1
		c-4,6.6-4.9,14.2-6.3,21.7c-0.6,3.4-1.3,6.8-2.3,10.1c-1.2,3.7-2.4,7.4-1.6,11.3c0.6,2.9,2.1,3.5,4.9,4.1c2.4,0.5,7.6,2.5,9.5,0.7
		c0.2-0.2,1.8-2.8,1.9-3c0.6-1.1,0.5-2,0.4-3.2c-0.1-1.2-0.4-2.6-1-3.7c-0.9-1.5-2.9-2.3-3.7-4c-1-2.2,0.7-5.2,1.4-7.4
		c1.2-3.4,2.6-6.5,4.6-9.6c1.9-3,3.9-6,6-9c2.5-3.6,4.8-2.2,8.7-1.3c2.4,0.6,7,0.5,7.5,3.4c0.5,3.1-3.7,7.8-5.2,10.1
		c-4.3,6.3-8.3,12.5-11.8,19.3c-1.4,2.8-3.3,5.5-4.3,8.5c-1.1,3.3-0.7,6.9-1.7,10.2c-0.5,1.5-1.6,2.6-2.2,4.1
		c-0.7,1.7-0.8,3.4-0.9,5.2c-0.1,0.8,0.2,1.3-0.2,2.2c-0.2,0.5-1.2,0.7-1.4,1.1c-0.6,1.4,0,2.8,0.3,4.3c0.8,3.9,1,8.1,2.6,11.8
		c1.4,3.2,3.8,6,6.1,8.5c4.5,5.1,10.8,8.4,14.2,14.4c2.1,3.8,3.8,6.3,7,9.1C-578.9,702.7-576.5,705.8-573.9,709.1
		C-574,709.3-575.5,707-573.9,709.1z"/>
	<path class="st4" d="M-573.9,709.1c-2.1-2.7-4-5.4-6.5-7.8c-2.8-2.7-5.4-4.7-7.3-8.1c-3-5.6-7-9.6-12-13.6
		c-4.7-3.8-9.5-9.4-10.7-15.5c-0.7-3.3-1.8-7.2-2-10.5c0-1.2,0.1-1.3,0.6-2.2c0.2-0.4,0.9-0.8,1.1-1.3c0.4-0.9,0-2,0.1-2.9
		c0.2-3.2,1.9-4.8,3-7.5c1.2-3.1,0.7-6.9,1.6-10.2c0.9-3.1,2.8-5.7,4.2-8.5c1.8-3.5,3.6-6.9,5.7-10.2c1.9-3,3.9-6,6-9
		c1.9-2.8,5.3-6.5,5.5-10.1c0.2-3.6-4.5-3.3-7.3-4c-3.9-1-6.1-2.4-8.7,1.3c-3.9,5.6-8,11.4-10.3,17.9c-0.7,1.9-2.6,5.6-2,7.6
		c0.5,1.5,2.5,2.4,3.4,3.5c1,1.2,1.4,2.6,1.6,4.1c0.4,2.5-0.5,4.5-2.1,6.4c-1.9,2.3-6.3,0.4-9-0.1c-2.7-0.5-4.9-0.8-5.6-3.7
		c-0.9-3.8,0.2-7.6,1.3-11.2c2.4-7.4,3.2-15.3,5-22.9c0.8-3.2,1.9-6.1,3.6-9c1.3-2.2,3.5-7.5,5.8-8.6c2.4-1.2,7.6-0.2,10.3-0.3
		c4.1-0.1,8.2,0,12.3,0.3c4.1,0.3,8.2,0.3,12.3,0.4c4,0.1,7.3,1,11.2,2c1.2,0.3,4.1,1.7,5.2,1.4c1.2-0.3,2.4-2.9,3.2-4.3
		c2-3.1,4.3-6.1,7.1-8.5c5.7-4.8,13.6-7,20.7-4.1c6.9,2.9,9.5,9.1,9.3,16.2c-0.1,3.8-2.5,8.5-5,11.4c-2.1,2.5-5.4,2.8-7.7,5.2
		c3.2,2.5,9.9,6.8,13.4,3.1c4.4-4.6,7.4-12.4,9.2-18.4c1.9-6.1-5.4-8-4.6-14.4c0.4-2.7,2.4-4.3,5.1-4.1c2.3,0.2,8.3,1.6,9.8,3.4
		c1.6,1.8,0.7,7.3,0.2,9.3c-0.9,3.8-1.9,7.4-2.6,11.2c-1.1,6.6-2.3,12.2-5.2,18.3c-1.2,2.6-3.2,4.5-4.6,6.9
		c-0.6,1.1-0.2,1.7-1.4,2.3c-1,0.5-3.2-0.2-4.3-0.3c-6.9-0.7-14.9,0.3-21.5-2c-2.8-1-8.8-4.4-11.8-3.2c-2.3,1-3.3,5.8-4.4,7.8
		c-1.5,2.8-4,4.1-5.8,6.6c-2.4,3.1-3,7.8-4.4,11.4c4.4-0.4,8.7-0.8,13-1.8c4-0.9,8.4-2.1,12.5-1.5c4.3,0.7,6,3.5,8.5,6.6
		c2.9,3.6,6.3,6.7,9.5,9.9c6.1,5.9,11.3,12.9,18,18.2c3.1,2.4,6.5,4.1,10.2,5.4c4.5,1.6,6.3,0.8,10.7-0.6c3.9-1.3,5.7-3.3,8.8-5.7
		c0.6-0.5,2.6-2.1,3.5-1c0.7,0.8-1.1,6.4-1.4,7.4c-1,3.5-3,7.4-5.9,9.7c-3.3,2.7-7.6,4.1-11.2,6.6c-3.8,2.6-5.8,2.3-9.3-1
		c-2.4-2.3-3.5-5.8-6.3-7.7c-3.2-2.3-7-3.6-10.3-5.9c-3.5-2.4-6.7-5-10.6-6.8c-3.5-1.6-6.1-3.4-8.8-6.2c-1.3-1.4-2.7-2.8-4-4.2
		c-1.2-1.4-2.2-4.2-4.1-4.8c-2.3-0.8-8.1,2.9-10,4c-3.5,2-6.9,4.6-10.2,6.9c-1.4,1-3.8,2.7-4.6,4.4c-0.8,1.7,0.1,3.4,0.6,5
		c1.4,4.4,3,8.8,4,13.4c2.1,8.9,3.1,17.9,5.5,26.7c0.9,3.5,1.5,7.6,0.2,11.1c-1.6,4.4-6.7,5.5-10.8,6.8c-8.8,2.7-17.6,5.4-26.8,6.7
		c-7.8,1-16.8,2.6-23.7,6.4c-3.7,2-6.7,5.1-10.1,7.5c-3.4,2.5-6,5-8.2,8.7c-0.6,1-2,3.7-3.8,2.9c-1.1-0.5-1.3-3.9-1.3-4.8
		c-0.2-4.7,2.1-10,4.4-14c1.2-2,2.1-3.6,2.3-5.9c0.1-1.7-0.4-3.8,0.4-5.3c1.9-3.5,7.2-1.5,10.2-1.2c5,0.4,8.8-1.6,13-4.1
		c3.3-2,7.1-2.9,10-5.4c3.5-3,6.9-5.4,11.5-6.7C-583.9,709.4-575.6,711.1-573.9,709.1C-575.5,707-574,709.3-573.9,709.1z"/>
</g>
</svg>
