<?xml version="1.0" encoding="utf-8"?>
<!-- Generator: Adobe Illustrator 19.1.0, SVG Export Plug-In . SVG Version: 6.00 Build 0)  -->
<svg version="1.1" id="Layer_1" xmlns="http://www.w3.org/2000/svg" xmlns:xlink="http://www.w3.org/1999/xlink" x="0px" y="0px"
	 viewBox="0 0 26 35" style="enable-background:new 0 0 26 35;" xml:space="preserve">
<style type="text/css">
	.st0{fill:#EE5A23;}
	.st1{fill:#FFFFFF;}
</style>
<g>
	<g>
		<g>
			<path class="st0" d="M1,17.5C1,17.6,1,17.6,1,17.5C1,17.6,1,17.5,1,17.5C1,17.5,1,17.5,1,17.5z"/>
			<path class="st0" d="M12.9,25.7c-3.4,0-6.5-1.4-8.8-3.6c1.2,1.6,2.4,3,3.1,3.8c1.9,1.9,3.8,3.8,5.7,5.7c1.7-1.7,3.3-3.3,5-5
				c1.2-1.2,3.6-3.8,5.3-6.2C20.9,23.6,17.1,25.7,12.9,25.7z"/>
			<path class="st0" d="M24.1,19c0.3-0.5,0.5-1,0.7-1.4l0,0C24.6,18,24.4,18.5,24.1,19z"/>
			<path class="st0" d="M25.6,13c0-7-5.7-12.7-12.7-12.7S0.2,6,0.2,13c0,1.6,0.3,3.1,0.8,4.5c0,0,0,0.1,0,0.1c0.7,1.7,1.7,3.3,3,4.5
				c2.3,2.2,5.4,3.6,8.8,3.6c4.2,0,8-2.1,10.3-5.3c0.3-0.4,0.5-0.8,0.8-1.2c0,0,0-0.1,0.1-0.1c0-0.1,0.1-0.1,0.1-0.2
				c0.2-0.5,0.5-1,0.6-1.5C25.3,16.1,25.6,14.6,25.6,13z M12.9,23.9c-2.4,0-4.6-0.8-6.4-2.1c0.1-0.1,0.1-0.1,0.1-0.2
				c0.2-0.3,0.4-0.5,0.7-0.8c0.3-0.2,0.6-0.5,0.9-0.7c0.6-0.3,1.4-0.5,2.1-0.6c0.8-0.1,1.6-0.3,2.4-0.6c0.4-0.1,0.8-0.2,0.9-0.6
				c0.1-0.3,0.1-0.7,0-1c-0.2-0.8-0.3-1.6-0.5-2.4c-0.1-0.4-0.2-0.8-0.4-1.2c0-0.1-0.1-0.3-0.1-0.4c0.1-0.1,0.3-0.3,0.4-0.4
				c0.3-0.2,0.6-0.4,0.9-0.6c0.2-0.1,0.7-0.4,0.9-0.4c0.2,0.1,0.2,0.3,0.4,0.4c0.1,0.1,0.2,0.3,0.3,0.4c0.2,0.2,0.5,0.4,0.8,0.5
				c0.3,0.2,0.6,0.4,0.9,0.6c0.3,0.2,0.6,0.3,0.9,0.5c0.2,0.2,0.3,0.5,0.5,0.7c0.3,0.3,0.5,0.3,0.8,0.1c0.3-0.2,0.7-0.3,1-0.6
				c0.2-0.2,0.4-0.5,0.5-0.8c0-0.1,0.2-0.6,0.1-0.7c-0.1-0.1-0.2,0.1-0.3,0.1c-0.3,0.2-0.4,0.4-0.8,0.5c-0.4,0.1-0.5,0.2-0.9,0.1
				c-0.3-0.1-0.6-0.3-0.9-0.5c-0.6-0.5-1.1-1.1-1.6-1.6c-0.3-0.3-0.6-0.5-0.8-0.9c-0.2-0.3-0.4-0.5-0.8-0.6
				c-0.4-0.1-0.7,0.1-1.1,0.1c-0.4,0.1-0.8,0.1-1.2,0.2c0.1-0.3,0.2-0.7,0.4-1c0.2-0.2,0.4-0.3,0.5-0.6c0.1-0.2,0.2-0.6,0.4-0.7
				c0.3-0.1,0.8,0.2,1,0.3C15.7,9,16.4,8.9,17,9c0.1,0,0.3,0.1,0.4,0c0.1-0.1,0.1-0.1,0.1-0.2c0.1-0.2,0.3-0.4,0.4-0.6
				c0.2-0.5,0.4-1,0.5-1.6c0.1-0.3,0.2-0.6,0.2-1c0-0.2,0.1-0.7,0-0.8c-0.1-0.2-0.7-0.3-0.9-0.3c-0.2,0-0.4,0.1-0.5,0.4
				c-0.1,0.6,0.6,0.7,0.4,1.3c-0.2,0.5-0.4,1.2-0.8,1.6c-0.3,0.3-0.9,0-1.2-0.3c0.2-0.2,0.5-0.2,0.7-0.5c0.2-0.2,0.4-0.7,0.4-1
				c0-0.6-0.2-1.2-0.8-1.4c-0.6-0.3-1.3-0.1-1.8,0.4c-0.2,0.2-0.5,0.5-0.6,0.7C13.4,5.8,13.3,6,13.2,6c-0.1,0-0.3-0.1-0.5-0.1
				c-0.3-0.1-0.6-0.2-1-0.2c-0.4,0-0.7,0-1.1,0c-0.4,0-0.7,0-1.1,0c-0.2,0-0.7-0.1-0.9,0C8.5,5.8,8.3,6.3,8.2,6.4
				C8.1,6.7,8,7,7.9,7.2C7.7,7.9,7.7,8.6,7.5,9.3c-0.1,0.3-0.2,0.6-0.1,1c0.1,0.2,0.3,0.3,0.5,0.3c0.2,0,0.6,0.2,0.8,0
				c0.2-0.2,0.2-0.3,0.2-0.6c0-0.1-0.1-0.2-0.1-0.4C8.6,9.6,8.4,9.5,8.4,9.4C8.4,9.2,8.5,8.9,8.6,8.7c0.2-0.6,0.6-1.1,0.9-1.6
				C9.7,6.8,9.9,6.9,10.3,7c0.2,0.1,0.7,0,0.6,0.4c0,0.3-0.3,0.6-0.5,0.9c-0.2,0.3-0.4,0.5-0.5,0.8C9.7,9.4,9.5,9.7,9.4,10
				c-0.1,0.2-0.3,0.5-0.4,0.8c-0.1,0.3,0,0.6-0.2,0.9c-0.1,0.2-0.2,0.4-0.3,0.7c0,0.1,0,0.2,0,0.3c0,0-0.1,0.1-0.1,0.1
				c-0.1,0.1-0.1,0.1-0.1,0.2c0,0.3,0.1,0.6,0.2,0.9c0.1,0.5,0.5,1,0.9,1.4c0.4,0.3,0.8,0.7,1.1,1.2c0.2,0.3,0.4,0.5,0.6,0.7
				c0.2,0.2,0.4,0.4,0.6,0.7c-0.2,0.2-0.9,0-1,0.1c-0.4,0.1-0.7,0.3-1,0.6c-0.3,0.2-0.6,0.3-0.9,0.5c-0.4,0.2-0.7,0.4-1.2,0.4
				c-0.3,0-0.7-0.2-0.9,0.1c-0.1,0.1,0,0.3,0,0.5c0,0.2-0.1,0.3-0.2,0.5c-0.2,0.3-0.4,0.8-0.4,1.2c0,0,0,0.1,0,0.1
				c-2.6-2-4.2-5.1-4.2-8.6c0-6,4.9-10.9,10.9-10.9S23.8,7,23.8,13S18.9,23.9,12.9,23.9z"/>
			<path class="st1" d="M12.9,2.1C6.8,2.1,1.9,7,1.9,13c0,3.5,1.7,6.6,4.2,8.6c0,0,0-0.1,0-0.1c0-0.4,0.2-0.9,0.4-1.2
				c0.1-0.2,0.2-0.3,0.2-0.5c0-0.2,0-0.3,0-0.5C7,19,7.4,19.2,7.7,19.2c0.4,0,0.8-0.2,1.2-0.4c0.3-0.2,0.6-0.2,0.9-0.5
				c0.3-0.3,0.6-0.5,1-0.6c0.1-0.1,0.9,0.1,1-0.1c0,0-0.2-0.2,0,0c-0.2-0.2-0.4-0.5-0.6-0.7c-0.2-0.2-0.5-0.4-0.6-0.7
				c-0.3-0.5-0.6-0.8-1.1-1.2c-0.4-0.3-0.8-0.8-0.9-1.4c-0.1-0.3-0.2-0.6-0.2-0.9c0-0.1,0-0.1,0.1-0.2c0,0,0.1-0.1,0.1-0.1
				c0-0.1,0-0.2,0-0.3c0-0.3,0.2-0.4,0.3-0.7C9,11.3,8.9,11,9,10.7c0.1-0.3,0.2-0.5,0.4-0.8c0.2-0.3,0.3-0.6,0.5-0.9
				c0.2-0.3,0.3-0.5,0.5-0.8c0.2-0.2,0.5-0.6,0.5-0.9c0-0.3-0.4-0.3-0.6-0.4C9.9,6.9,9.7,6.8,9.5,7.1c-0.3,0.5-0.7,1-0.9,1.6
				C8.5,8.9,8.4,9.2,8.4,9.4c0,0.1,0.2,0.2,0.3,0.3C8.8,9.8,8.8,9.9,8.8,10c0,0.2,0,0.4-0.2,0.6c-0.2,0.2-0.5,0-0.8,0
				c-0.2,0-0.4-0.1-0.5-0.3c-0.1-0.3,0-0.7,0.1-1c0.2-0.7,0.2-1.4,0.4-2.1C8,7,8.1,6.7,8.2,6.4c0.1-0.2,0.3-0.7,0.5-0.8
				c0.2-0.1,0.7,0,0.9,0c0.4,0,0.7,0,1.1,0c0.4,0,0.7,0,1.1,0c0.4,0,0.6,0.1,1,0.2c0.1,0,0.4,0.2,0.5,0.1c0.1,0,0.2-0.3,0.3-0.4
				c0.2-0.3,0.4-0.5,0.6-0.7c0.5-0.4,1.2-0.6,1.8-0.4c0.6,0.2,0.8,0.8,0.8,1.4c0,0.3-0.2,0.8-0.4,1c-0.2,0.2-0.5,0.2-0.7,0.5
				C16,7.7,16.5,8,16.8,7.7c0.4-0.4,0.6-1.1,0.8-1.6c0.2-0.5-0.5-0.7-0.4-1.3c0-0.2,0.2-0.4,0.5-0.4c0.2,0,0.7,0.1,0.9,0.3
				c0.1,0.2,0.1,0.6,0,0.8c-0.1,0.3-0.2,0.6-0.2,1c-0.1,0.6-0.2,1.1-0.5,1.6c-0.1,0.2-0.3,0.4-0.4,0.6c-0.1,0.1,0,0.2-0.1,0.2
				c-0.1,0.1-0.3,0-0.4,0c-0.6-0.1-1.3,0-1.9-0.2c-0.2-0.1-0.8-0.4-1-0.3c-0.2,0.1-0.3,0.5-0.4,0.7c-0.1,0.2-0.3,0.4-0.5,0.6
				c-0.2,0.3-0.3,0.7-0.4,1c0.4,0,0.8-0.1,1.2-0.2c0.4-0.1,0.7-0.2,1.1-0.1c0.4,0.1,0.5,0.3,0.8,0.6c0.2,0.3,0.5,0.6,0.8,0.9
				c0.5,0.5,1,1.1,1.6,1.6c0.3,0.2,0.6,0.4,0.9,0.5c0.4,0.1,0.5,0.1,0.9-0.1c0.3-0.1,0.5-0.3,0.8-0.5c0.1,0,0.2-0.2,0.3-0.1
				c0.1,0.1-0.1,0.6-0.1,0.7c-0.1,0.3-0.3,0.6-0.5,0.8c-0.3,0.2-0.7,0.4-1,0.6c-0.3,0.2-0.5,0.2-0.8-0.1c-0.2-0.2-0.3-0.5-0.5-0.7
				c-0.3-0.2-0.6-0.3-0.9-0.5c-0.3-0.2-0.6-0.4-0.9-0.6c-0.3-0.1-0.5-0.3-0.8-0.5c-0.1-0.1-0.2-0.2-0.3-0.4
				c-0.1-0.1-0.2-0.4-0.4-0.4c-0.2-0.1-0.7,0.2-0.9,0.4c-0.3,0.2-0.6,0.4-0.9,0.6c-0.1,0.1-0.3,0.2-0.4,0.4c-0.1,0.2,0,0.3,0.1,0.4
				c0.1,0.4,0.3,0.8,0.4,1.2c0.2,0.8,0.3,1.6,0.5,2.4c0.1,0.3,0.1,0.7,0,1c-0.2,0.4-0.6,0.5-0.9,0.6c-0.8,0.2-1.5,0.5-2.4,0.6
				c-0.7,0.1-1.5,0.2-2.1,0.6c-0.3,0.2-0.6,0.5-0.9,0.7c-0.3,0.2-0.5,0.4-0.7,0.8c0,0-0.1,0.1-0.1,0.2c1.8,1.3,4,2.1,6.4,2.1
				c6,0,10.9-4.9,10.9-10.9S18.9,2.1,12.9,2.1z"/>
			<path class="st0" d="M11.8,17.7C11.6,17.5,11.8,17.7,11.8,17.7L11.8,17.7z"/>
		</g>
	</g>
</g>
</svg>
